<?xml version="1.0" encoding="utf-8"?>
<!-- Generator: Adobe Illustrator 26.0.0, SVG Export Plug-In . SVG Version: 6.00 Build 0)  -->
<svg version="1.1" id="Icons" xmlns="http://www.w3.org/2000/svg" xmlns:xlink="http://www.w3.org/1999/xlink" x="0px" y="0px"
	 viewBox="0 0 197 188" style="enable-background:new 0 0 197 188;" xml:space="preserve">
<style type="text/css">
	.st0{opacity:0.29;fill-rule:evenodd;clip-rule:evenodd;fill:#FFFFFF;}
</style>
<path class="st0" d="M25.16,76.52h151.96c4.46,0,8.02,3.64,8.02,8.02v18.26H17.14V84.54C17.14,80.16,20.71,76.52,25.16,76.52
	L25.16,76.52z M13.73,50.24L166.95,9.19c3.12-0.82,6.38,1.04,7.2,4.16l3.42,12.77c0.82,3.12-1.04,6.38-4.16,7.2L20.19,74.37
	c-3.12,0.89-6.38-1.04-7.2-4.16L9.57,57.44C8.68,54.33,10.61,51.13,13.73,50.24L13.73,50.24z M30.06,51.36l5.86-1.56
	c1.11-0.3,2.15-0.07,2.3,0.45l3.19,11.88c0.15,0.59-0.67,1.26-1.78,1.56l-5.86,1.63c-1.12,0.3-2.15,0.07-2.3-0.52l-3.19-11.88
	C28.13,52.4,28.87,51.65,30.06,51.36L30.06,51.36z M147.42,19.88l5.94-1.56c1.11-0.3,2.15-0.07,2.3,0.45l3.19,11.88
	c0.15,0.59-0.67,1.26-1.78,1.63l-5.86,1.56c-1.11,0.3-2.15,0.08-2.3-0.52l-3.19-11.88C145.57,20.92,146.31,20.18,147.42,19.88
	L147.42,19.88z M123.96,26.19l5.86-1.56c1.19-0.3,2.23-0.15,2.38,0.45l3.12,11.88c0.15,0.59-0.59,1.26-1.71,1.56l-5.94,1.63
	c-1.11,0.3-2.15,0.07-2.3-0.52l-3.19-11.88C122.03,27.16,122.85,26.49,123.96,26.19L123.96,26.19z M100.51,32.5l5.86-1.63
	c1.11-0.3,2.15-0.07,2.3,0.52l3.19,11.88c0.15,0.59-0.67,1.26-1.78,1.56l-5.86,1.56c-1.11,0.3-2.15,0.15-2.3-0.45l-3.19-11.88
	C98.58,33.47,99.39,32.8,100.51,32.5L100.51,32.5z M76.97,38.74l5.94-1.56c1.11-0.3,2.15-0.07,2.3,0.52l3.19,11.88
	c0.15,0.52-0.67,1.26-1.78,1.56l-5.87,1.56c-1.19,0.3-2.23,0.07-2.37-0.45l-3.12-11.88C75.12,39.78,75.86,39.11,76.97,38.74
	L76.97,38.74z M53.52,45.05l5.86-1.56c1.11-0.3,2.15-0.07,2.3,0.45l3.19,11.95c0.15,0.52-0.59,1.26-1.71,1.56L57.23,59
	c-1.11,0.3-2.15,0.07-2.3-0.45l-3.19-11.95C51.59,46.09,52.4,45.34,53.52,45.05L53.52,45.05z M185.13,109.26v62.87
	c0,4.38-3.56,8.02-8.02,8.02H25.16c-4.45,0-8.01-3.64-8.01-8.02v-62.87H185.13z M37.33,82.39h6.09c1.11,0,2.08,0.45,2.08,1.04v12.32
	c0,0.6-0.97,1.04-2.08,1.04h-6.09c-1.19,0-2.15-0.44-2.15-1.04V83.42C35.18,82.83,36.15,82.39,37.33,82.39L37.33,82.39z
	 M158.85,82.39h6.09c1.19,0,2.15,0.45,2.15,1.04v12.32c0,0.6-0.97,1.04-2.15,1.04h-6.09c-1.11,0-2.08-0.44-2.08-1.04V83.42
	C156.78,82.83,157.74,82.39,158.85,82.39L158.85,82.39z M134.58,82.39h6.09c1.19,0,2.08,0.45,2.08,1.04v12.32
	c0,0.6-0.89,1.04-2.08,1.04h-6.09c-1.19,0-2.15-0.44-2.15-1.04V83.42C132.43,82.83,133.39,82.39,134.58,82.39L134.58,82.39z
	 M110.23,82.39h6.09c1.19,0,2.15,0.45,2.15,1.04v12.32c0,0.6-0.96,1.04-2.15,1.04h-6.09c-1.11,0-2.08-0.44-2.08-1.04V83.42
	C108.15,82.83,109.12,82.39,110.23,82.39L110.23,82.39z M85.96,82.39h6.09c1.11,0,2.08,0.45,2.08,1.04v12.32
	c0,0.6-0.96,1.04-2.08,1.04h-6.09c-1.19,0-2.15-0.44-2.15-1.04V83.42C83.8,82.83,84.77,82.39,85.96,82.39L85.96,82.39z M61.61,82.39
	h6.09c1.19,0,2.15,0.45,2.15,1.04v12.32c0,0.6-0.97,1.04-2.15,1.04h-6.09c-1.19,0-2.08-0.44-2.08-1.04V83.42
	C59.53,82.83,60.42,82.39,61.61,82.39L61.61,82.39z"/>
</svg>
