<?xml version="1.0" encoding="utf-8"?>
<!-- Generator: Adobe Illustrator 26.0.0, SVG Export Plug-In . SVG Version: 6.00 Build 0)  -->
<svg version="1.1" xmlns="http://www.w3.org/2000/svg" xmlns:xlink="http://www.w3.org/1999/xlink" x="0px" y="0px"
	 viewBox="0 0 144.89 63.56" style="enable-background:new 0 0 144.89 63.56;" xml:space="preserve">
<style type="text/css">
	.st0{opacity:0.61;}
	.st1{fill:#FFFFFF;}
</style>
<g id="_x34_">
	<g>
		<g>
			<path d="M92.43,22.24c-0.24,0-0.43,0.09-0.56,0.28c-0.13,0.19-0.19,0.74-0.19,1.66v8.33c0,1.04,0.04,1.68,0.13,1.92
				c0.08,0.24,0.28,0.36,0.59,0.36c0.32,0,0.52-0.14,0.61-0.42c0.09-0.28,0.13-0.94,0.13-2v-8.2c0-0.83-0.05-1.36-0.14-1.59
				S92.72,22.24,92.43,22.24z"/>
			<path d="M71,22.81c-0.18-0.11-0.53-0.16-1.04-0.16v11.74c0.67,0,1.08-0.13,1.23-0.4c0.15-0.27,0.23-1,0.23-2.19v-6.93
				c0-0.81-0.03-1.33-0.08-1.55C71.3,23.08,71.18,22.91,71,22.81z"/>
			<path d="M1.76,1.72v45.62c0,7.39,5.99,13.38,13.38,13.38h114.24c7.39,0,13.38-5.99,13.38-13.38V1.72H1.76z M55.67,37.44h-7.05
				l-2.68-17.84h4.89c0.57,4.92,0.98,9.07,1.22,12.48c0.24-3.44,0.49-6.49,0.76-9.16l0.32-3.32h4.89L55.67,37.44z M63.46,37.44
				h-4.64V19.59h4.64V37.44z M76.07,32.14c0,1.6-0.08,2.67-0.23,3.21c-0.15,0.54-0.41,0.96-0.79,1.27
				c-0.38,0.31-0.84,0.52-1.39,0.64c-0.55,0.12-1.38,0.18-2.49,0.18h-5.85V19.59h3.47c2.24,0,3.76,0.1,4.55,0.31
				c0.79,0.21,1.39,0.54,1.8,1.01s0.67,0.99,0.77,1.57c0.1,0.58,0.15,1.71,0.15,3.4V32.14z M85.84,37.44H77.8V19.59h7.74v3.57h-3.1
				v3.38h2.9v3.4h-2.9v3.92h3.41V37.44z M97.78,30.04c0,1.79-0.04,3.06-0.13,3.81c-0.08,0.75-0.35,1.43-0.79,2.04
				s-1.04,1.09-1.8,1.42s-1.64,0.5-2.65,0.5c-0.96,0-1.81-0.16-2.57-0.47c-0.76-0.31-1.37-0.78-1.83-1.41
				c-0.46-0.62-0.74-1.3-0.83-2.04c-0.09-0.73-0.13-2.02-0.13-3.86v-3.05c0-1.79,0.04-3.06,0.13-3.81c0.08-0.75,0.35-1.43,0.79-2.04
				s1.04-1.09,1.8-1.42s1.64-0.5,2.65-0.5c0.96,0,1.81,0.16,2.57,0.47c0.76,0.31,1.37,0.78,1.84,1.41s0.74,1.3,0.83,2.04
				s0.13,2.02,0.13,3.86V30.04z"/>
		</g>
		<g class="st0">
			<path class="st1" d="M58.04,19.59l-2.36,17.84h-7.05l-2.68-17.84h4.89c0.57,4.92,0.98,9.07,1.22,12.48
				c0.24-3.44,0.49-6.49,0.76-9.16l0.32-3.32H58.04z"/>
			<path class="st1" d="M63.46,19.59v17.84h-4.64V19.59H63.46z"/>
			<path class="st1" d="M65.32,19.59h3.47c2.24,0,3.76,0.1,4.55,0.31c0.79,0.21,1.39,0.54,1.8,1.01s0.67,0.99,0.77,1.57
				c0.1,0.58,0.15,1.71,0.15,3.4v6.25c0,1.6-0.08,2.67-0.23,3.21c-0.15,0.54-0.41,0.96-0.79,1.27c-0.38,0.31-0.84,0.52-1.39,0.64
				c-0.55,0.12-1.38,0.18-2.49,0.18h-5.85V19.59z M69.96,22.65v11.74c0.67,0,1.08-0.13,1.23-0.4c0.15-0.27,0.23-1,0.23-2.19v-6.93
				c0-0.81-0.03-1.33-0.08-1.55c-0.05-0.23-0.17-0.4-0.35-0.5S70.47,22.65,69.96,22.65z"/>
			<path class="st1" d="M77.8,19.59h7.74v3.57h-3.1v3.38h2.9v3.4h-2.9v3.92h3.41v3.57H77.8V19.59z"/>
			<path class="st1" d="M97.78,30.04c0,1.79-0.04,3.06-0.13,3.81c-0.08,0.75-0.35,1.43-0.79,2.04s-1.04,1.09-1.8,1.42
				s-1.64,0.5-2.65,0.5c-0.96,0-1.81-0.16-2.57-0.47c-0.76-0.31-1.37-0.78-1.83-1.41c-0.46-0.62-0.74-1.3-0.83-2.04
				c-0.09-0.73-0.13-2.02-0.13-3.86v-3.05c0-1.79,0.04-3.06,0.13-3.81c0.08-0.75,0.35-1.43,0.79-2.04s1.04-1.09,1.8-1.42
				s1.64-0.5,2.65-0.5c0.96,0,1.81,0.16,2.57,0.47c0.76,0.31,1.37,0.78,1.84,1.41s0.74,1.3,0.83,2.04s0.13,2.02,0.13,3.86V30.04z
				 M93.14,24.18c0-0.83-0.05-1.36-0.14-1.59s-0.28-0.35-0.57-0.35c-0.24,0-0.43,0.09-0.56,0.28c-0.13,0.19-0.19,0.74-0.19,1.66
				v8.33c0,1.04,0.04,1.68,0.13,1.92c0.08,0.24,0.28,0.36,0.59,0.36c0.32,0,0.52-0.14,0.61-0.42c0.09-0.28,0.13-0.94,0.13-2V24.18z"
				/>
		</g>
	</g>
</g>
<g id="Layer_1">
</g>
</svg>
